<?xml version="1.0" standalone="no"?>
<!DOCTYPE svg PUBLIC "-//W3C//DTD SVG 20010904//EN"
 "http://www.w3.org/TR/2001/REC-SVG-20010904/DTD/svg10.dtd">
<svg version="1.0" xmlns="http://www.w3.org/2000/svg"
 width="135.000000pt" height="200.000000pt" viewBox="0 0 135.000000 200.000000"
 preserveAspectRatio="xMidYMid meet">

<g transform="translate(0.000000,200.000000) scale(0.100000,-0.100000)"
fill="#000000" stroke="none">
<path d="M380 1889 c0 -40 -1 -40 -32 -37 -32 3 -33 1 -36 -34 l-3 -38 -75 0
-74 0 0 -75 0 -75 35 0 c34 0 35 -1 35 -40 0 -39 -1 -40 -35 -40 l-35 0 0
-110 0 -110 35 0 35 0 0 -151 0 -150 38 3 37 3 3 148 3 147 34 0 c33 0 35 -2
35 -35 l0 -35 75 0 75 0 0 75 0 75 75 0 75 0 0 35 c0 34 1 35 40 35 39 0 40
-1 40 -35 l0 -35 110 0 110 0 0 35 c0 34 1 35 40 35 39 0 40 -1 40 -35 0 -33
2 -35 35 -35 l35 0 0 -74 0 -75 -37 -3 -38 -3 0 -75 0 -75 38 -3 37 -3 0 -70
0 -69 -35 0 c-33 0 -35 2 -35 35 l0 35 -115 0 -115 0 0 -40 0 -40 110 0 c81 0
110 -3 111 -12 1 -7 2 -22 3 -33 1 -16 9 -21 39 -23 l37 -3 0 40 c0 40 1 41
35 41 l35 0 0 225 0 225 40 0 40 0 0 185 0 185 -40 0 c-39 0 -40 1 -40 35 0
33 -2 35 -35 35 -34 0 -35 1 -35 40 l0 40 -75 0 -75 0 0 -40 0 -40 -75 0 -75
0 0 40 0 40 -75 0 -75 0 0 -40 0 -40 -75 0 -75 0 0 40 0 40 -75 0 -75 0 0 -41z"/>
<path d="M754 1246 c-3 -7 -4 -42 -2 -77 l3 -64 38 -3 37 -3 0 80 0 81 -35 0
c-21 0 -38 -6 -41 -14z"/>
<path d="M310 955 l0 -75 110 0 110 0 0 -40 0 -40 75 0 75 0 0 -185 0 -185
-75 0 -75 0 0 110 0 110 -75 0 -75 0 0 -35 c0 -33 2 -35 35 -35 l35 0 0 -75 0
-75 -110 0 -110 0 0 150 0 150 35 0 35 0 0 75 0 75 -35 0 -35 0 0 -75 0 -75
-35 0 -35 0 0 -150 0 -150 35 0 c33 0 35 -2 35 -34 0 -33 2 -35 38 -38 35 -3
37 -5 40 -40 l3 -38 -40 0 -41 0 0 -110 0 -110 450 0 450 0 0 70 0 70 -40 0
-41 0 3 78 3 77 38 3 c35 3 37 5 37 38 0 32 2 34 35 34 l35 0 0 110 0 110 -35
0 -35 0 0 -110 0 -110 -75 0 -75 0 0 185 0 185 35 0 c34 0 35 1 35 40 l0 40
-260 0 -260 0 0 40 0 40 -75 0 -75 0 0 35 c0 33 -2 35 -35 35 l-35 0 0 -75z
m440 -790 l0 -35 -220 0 -220 0 0 35 0 35 220 0 220 0 0 -35z m300 0 l0 -35
-110 0 -110 0 0 35 0 35 110 0 110 0 0 -35z"/>
<path d="M1060 724 l0 -75 33 3 32 3 3 73 3 72 -36 0 -35 0 0 -76z"/>
</g>
</svg>
